<svg width="64" height="64" viewBox="0 0 64 64" fill="none" xmlns="http://www.w3.org/2000/svg">
<circle cx="32" cy="32" r="32" fill="white"/>
<path d="M22.048 12.6199C23.5499 13.1287 24.9787 13.832 26.298 14.7119C28.1611 14.2357 30.0769 13.9965 32 13.9999C33.986 13.9999 35.902 14.2479 37.698 14.7099C39.0167 13.8308 40.4448 13.1282 41.946 12.6199C43.34 12.1459 45.326 11.3779 46.506 12.6839C47.306 13.5719 47.506 15.0599 47.648 16.1959C47.808 17.4639 47.846 19.1159 47.426 20.7559C49.032 22.8299 50 25.3039 50 27.9999C50 32.0839 47.788 35.6299 44.514 38.0859C42.9383 39.2529 41.1908 40.1679 39.334 40.7979C39.762 41.7779 40 42.8619 40 43.9999V49.9999C40 50.5303 39.7893 51.039 39.4142 51.4141C39.0391 51.7892 38.5304 51.9999 38 51.9999H26C25.4695 51.9999 24.9608 51.7892 24.5858 51.4141C24.2107 51.039 24 50.5303 24 49.9999V48.0179C22.09 48.2519 20.488 48.0439 19.126 47.4659C17.702 46.8619 16.71 45.9259 15.964 45.0299C15.256 44.1819 14.484 42.2699 13.368 41.8979C13.1187 41.8149 12.8883 41.6836 12.6897 41.5115C12.4912 41.3395 12.3285 41.13 12.211 40.8951C11.9736 40.4206 11.9344 39.8713 12.102 39.3679C12.2696 38.8645 12.6303 38.4483 13.1048 38.2109C13.5792 37.9735 14.1286 37.9343 14.632 38.1019C15.964 38.5459 16.832 39.5059 17.426 40.2779C18.386 41.5179 19.166 43.1379 20.686 43.7839C21.312 44.0499 22.23 44.2239 23.666 44.0279L24 43.9599C24.0038 42.8715 24.2304 41.7954 24.666 40.7979C22.8091 40.1679 21.0616 39.253 19.486 38.0859C16.212 35.6299 14 32.0859 14 27.9999C14 25.3079 14.966 22.8359 16.568 20.7639C16.148 19.1239 16.184 17.4679 16.344 16.1979L16.354 16.1219C16.5 14.9579 16.67 13.5879 17.486 12.6839C18.666 11.3779 20.654 12.1479 22.046 12.6219L22.048 12.6199Z" fill="#141414"/>
</svg>
