<svg width="64" height="64" viewBox="0 0 64 64" fill="none" xmlns="http://www.w3.org/2000/svg">
<circle cx="32" cy="32" r="32" fill="white"/>
<path d="M25.28 16H38.72C43.84 16 48 20.16 48 25.28V38.72C48 41.1812 47.0223 43.5416 45.282 45.282C43.5416 47.0223 41.1812 48 38.72 48H25.28C20.16 48 16 43.84 16 38.72V25.28C16 22.8188 16.9777 20.4584 18.718 18.718C20.4584 16.9777 22.8188 16 25.28 16ZM24.96 19.2C23.4324 19.2 21.9673 19.8069 20.8871 20.8871C19.8069 21.9673 19.2 23.4324 19.2 24.96V39.04C19.2 42.224 21.776 44.8 24.96 44.8H39.04C40.5676 44.8 42.0327 44.1931 43.1129 43.1129C44.1931 42.0327 44.8 40.5676 44.8 39.04V24.96C44.8 21.776 42.224 19.2 39.04 19.2H24.96ZM40.4 21.6C40.9304 21.6 41.4391 21.8107 41.8142 22.1858C42.1893 22.5609 42.4 23.0696 42.4 23.6C42.4 24.1304 42.1893 24.6391 41.8142 25.0142C41.4391 25.3893 40.9304 25.6 40.4 25.6C39.8696 25.6 39.3609 25.3893 38.9858 25.0142C38.6107 24.6391 38.4 24.1304 38.4 23.6C38.4 23.0696 38.6107 22.5609 38.9858 22.1858C39.3609 21.8107 39.8696 21.6 40.4 21.6ZM32 24C34.1217 24 36.1566 24.8429 37.6569 26.3431C39.1571 27.8434 40 29.8783 40 32C40 34.1217 39.1571 36.1566 37.6569 37.6569C36.1566 39.1571 34.1217 40 32 40C29.8783 40 27.8434 39.1571 26.3431 37.6569C24.8429 36.1566 24 34.1217 24 32C24 29.8783 24.8429 27.8434 26.3431 26.3431C27.8434 24.8429 29.8783 24 32 24ZM32 27.2C30.727 27.2 29.5061 27.7057 28.6059 28.6059C27.7057 29.5061 27.2 30.727 27.2 32C27.2 33.273 27.7057 34.4939 28.6059 35.3941C29.5061 36.2943 30.727 36.8 32 36.8C33.273 36.8 34.4939 36.2943 35.3941 35.3941C36.2943 34.4939 36.8 33.273 36.8 32C36.8 30.727 36.2943 29.5061 35.3941 28.6059C34.4939 27.7057 33.273 27.2 32 27.2Z" fill="#141414"/>
</svg>
