<svg width="64" height="64" viewBox="0 0 64 64" fill="none" xmlns="http://www.w3.org/2000/svg">
<circle cx="32" cy="32" r="32" fill="white"/>
<path d="M22.7156 19.5571C22.7152 20.5001 22.361 21.4042 21.731 22.0706C21.1009 22.7371 20.2467 23.1112 19.3561 23.1107C18.4656 23.1102 17.6117 22.7352 16.9823 22.0681C16.3529 21.401 15.9996 20.4965 16 19.5536C16.0004 18.6106 16.3546 17.7065 16.9847 17.0401C17.6147 16.3737 18.4689 15.9995 19.3595 16C20.25 16.0005 21.1039 16.3755 21.7333 17.0426C22.3627 17.7097 22.7161 18.6142 22.7156 19.5571ZM22.8164 25.7435H16.1007V48H22.8164V25.7435ZM33.4271 25.7435H26.745V48H33.3599V36.3207C33.3599 29.8143 41.3683 29.2099 41.3683 36.3207V48H48V33.903C48 22.9347 36.1469 23.3436 33.3599 28.73L33.4271 25.7435Z" fill="#141414"/>
</svg>
