<?xml version="1.0" encoding="UTF-8"?>
<!DOCTYPE svg PUBLIC "-//W3C//DTD SVG 1.1//EN" "http://www.w3.org/Graphics/SVG/1.1/DTD/svg11.dtd">
<!-- Creator: CorelDRAW (Versión de evaluación) -->
<svg xmlns="http://www.w3.org/2000/svg" xml:space="preserve" width="113.608mm" height="153.172mm" version="1.1" style="shape-rendering:geometricPrecision; text-rendering:geometricPrecision; image-rendering:optimizeQuality; fill-rule:evenodd; clip-rule:evenodd"
viewBox="0 0 807.17 1088.28"
 xmlns:xlink="http://www.w3.org/1999/xlink"
 xmlns:xodm="http://www.corel.com/coreldraw/odm/2003">
 <defs>
  <style type="text/css">
   <![CDATA[
    .fil0 {fill:white;fill-rule:nonzero}
   ]]>
  </style>
 </defs>
 <g id="Capa_x0020_1">
  <metadata id="CorelCorpID_0Corel-Layer"/>
  <path class="fil0" d="M67.15 1030.99c-24.87,12.59 -31.8,24.53 -56.27,11.64 -7.15,-3.77 -10.88,-10.3 -10.88,-19.23 0,-6.22 1.75,-11.66 5.24,-16.51 3.3,-5.05 7.77,-9.33 13.02,-13.21 6.02,-4.47 17.1,-11.27 33.03,-20.4 15.93,-9.13 32.64,-19.23 50.12,-30.31 17.48,-10.88 34.39,-20.98 50.7,-30.11 136.28,-76.25 340.05,-297.87 419.42,-426.22 9.13,-14.76 13.6,-28.36 13.6,-40.41l0 -3.5 -78.48 -183.19c-7.58,-17.48 -12.43,-36.33 -14.18,-56.34 -1.94,-20.2 -2.91,-40.02 -2.91,-59.83 0,-16.71 2.72,-33.61 7.97,-50.51 5.24,-17.1 13.02,-32.64 23.31,-46.24 10.3,-13.6 22.53,-24.87 37.1,-33.61 14.38,-8.74 31.47,-13.02 51.09,-13.02 20.59,0 37.49,5.83 50.7,17.68 13.21,11.66 23.89,26.42 31.86,43.71 7.96,17.48 13.4,35.94 16.51,55.37 3.11,19.23 4.47,36.91 4.47,52.84 0,45.46 -5.05,88.97 -15.35,130.35 -10.1,41.38 -24.09,83.73 -41.57,126.86l0 15.93c17.48,32.64 35.36,66.44 53.62,101.41 18.26,34.77 34.58,71.1 48.96,108.59 14.38,37.69 26.23,75.18 35.36,112.67 8.94,37.69 13.6,75.38 13.6,113.26 0,121.51 -78.61,209.61 -200.29,209.61 -34.19,0 -66.63,-5.24 -97.33,-15.54 -30.89,-10.1 -60.42,-23.89 -88.78,-40.99 -28.56,-16.9 -55.56,-36.52 -80.81,-58.47 -88.17,-76.73 -34.47,-118.54 17.48,-67.22 43.19,42.67 146.59,115.49 207.86,123.55 14.76,1.94 29.72,2.72 44.88,2.72 22.73,0 42.35,-4.27 58.67,-13.02 16.32,-8.74 29.72,-20.4 40.41,-35.36 10.68,-14.76 18.46,-31.86 23.31,-51.09 4.86,-19.43 7.38,-38.85 7.38,-58.67 0,-21.17 -1.75,-43.32 -5.05,-66.05 -13.23,-86.03 -80.64,-218.79 -115.59,-302.67l-89.95 126.27c-206.18,224.06 -217.45,239.76 -462.23,399.23zm482.82 -888.78c0,42.54 6.41,81.01 19.23,115.59 13.02,34.58 29.33,70.32 48.96,107.62 3.89,-2.33 7.19,-6.99 10.3,-14.18 2.91,-7.38 5.63,-15.35 7.96,-23.89 2.33,-8.74 4.08,-16.9 5.63,-24.48 1.55,-7.58 2.72,-12.24 3.5,-13.79 0,-1.55 0.58,-5.24 1.75,-11.27 0.97,-6.22 1.94,-13.21 2.72,-21.18 0.78,-7.96 1.75,-15.74 2.91,-23.31 1.17,-7.58 2.14,-13.21 2.72,-17.1 0,-10.63 -0.13,-21.23 -0.39,-31.86 -0.39,-15.93 -1.75,-33.22 -4.08,-51.67 -2.33,-18.65 -6.41,-35.36 -12.43,-50.12 -6.22,-14.76 -15.15,-22.34 -27.39,-22.34 -12.04,0 -22.34,2.33 -30.69,6.99 -8.35,4.47 -14.57,10.49 -18.84,18.07 -9.3,17.26 -11.85,37.56 -11.85,56.92z"/>
 </g>
</svg>
